<?xml version="1.0" encoding="UTF-8" standalone="no"?>
<svg
   xmlns:dc="http://purl.org/dc/elements/1.1/"
   xmlns:cc="http://creativecommons.org/ns#"
   xmlns:rdf="http://www.w3.org/1999/02/22-rdf-syntax-ns#"
   xmlns:svg="http://www.w3.org/2000/svg"
   xmlns="http://www.w3.org/2000/svg"
   xmlns:sodipodi="http://sodipodi.sourceforge.net/DTD/sodipodi-0.dtd"
   xmlns:inkscape="http://www.inkscape.org/namespaces/inkscape"
   version="1.1"
   id="svg2"
   viewBox="0 0 744.09448819 1052.3622047"
   height="297mm"
   width="210mm"
   inkscape:version="0.92.1 r15371"
   sodipodi:docname="page-yellow-removed.svg">
  <sodipodi:namedview
     pagecolor="#ffffff"
     bordercolor="#666666"
     borderopacity="1"
     objecttolerance="10"
     gridtolerance="10"
     guidetolerance="10"
     inkscape:pageopacity="0"
     inkscape:pageshadow="2"
     inkscape:window-width="1920"
     inkscape:window-height="1013"
     id="namedview7"
     showgrid="false"
     inkscape:zoom="1.0330822"
     inkscape:cx="212.04359"
     inkscape:cy="753.31693"
     inkscape:window-x="0"
     inkscape:window-y="38"
     inkscape:window-maximized="1"
     inkscape:current-layer="svg2" />
  <defs
     id="defs4" />
  <metadata
     id="metadata7">
    <rdf:RDF>
      <cc:Work
         rdf:about="">
        <dc:format>image/svg+xml</dc:format>
        <dc:type
           rdf:resource="http://purl.org/dc/dcmitype/StillImage" />
        <dc:title />
      </cc:Work>
    </rdf:RDF>
  </metadata>
  <path
     style="color:#000000;font-style:normal;font-variant:normal;font-weight:normal;font-stretch:normal;font-size:medium;line-height:normal;font-family:sans-serif;font-variant-ligatures:normal;font-variant-position:normal;font-variant-caps:normal;font-variant-numeric:normal;font-variant-alternates:normal;font-feature-settings:normal;text-indent:0;text-align:start;text-decoration:none;text-decoration-line:none;text-decoration-style:solid;text-decoration-color:#000000;letter-spacing:normal;word-spacing:normal;text-transform:none;writing-mode:lr-tb;direction:ltr;text-orientation:mixed;dominant-baseline:auto;baseline-shift:baseline;text-anchor:start;white-space:normal;shape-padding:0;clip-rule:nonzero;display:inline;overflow:visible;visibility:visible;opacity:1;isolation:auto;mix-blend-mode:normal;color-interpolation:sRGB;color-interpolation-filters:linearRGB;solid-color:#000000;solid-opacity:1;vector-effect:none;fill:none;fill-opacity:1;fill-rule:evenodd;stroke:#ff0f0f;stroke-width:2.81250001;stroke-linecap:round;stroke-linejoin:miter;stroke-miterlimit:4;stroke-dasharray:none;stroke-dashoffset:0;stroke-opacity:1;color-rendering:auto;image-rendering:auto;shape-rendering:auto;text-rendering:auto;enable-background:accumulate"
     d="M 411.69531,77.054688 391.31836,93.039062 C 318.73662,149.97459 282.97872,198.89934 279.40625,247.37891 c -3.57247,48.47956 29.07921,86.54492 71.26758,113.26367 9.80443,6.20934 20.35148,12.02395 31.36914,17.55273 -19.17063,9.95994 -44.56767,11.69365 -80.35547,-0.17969 C 253.80619,362.13002 189.64938,319.53588 112.93164,238.10156 A 23.439844,23.439844 0 1 0 78.8125,270.24414 c 79.98565,84.90314 148.73538,132.56124 208.11523,152.26172 59.00122,19.57485 111.0056,9.17336 144.50782,-22.71875 53.69578,20.7085 112.92116,36.2746 164.96093,50.09375 -192.35716,97.1337 -297.49838,183.68664 -350.38671,257.95898 -0.96948,1.36146 -1.77372,2.69527 -2.70704,4.05078 -3.50123,-3.54446 -6.89656,-7.03728 -10.60742,-10.68359 l -18.43359,-18.11328 -16.23047,20.11133 c -24.08298,29.84021 -43.20841,52.57601 -58.58008,69.96875 1.86292,-5.47535 3.52754,-10.48996 5.55078,-16.36133 16.13759,-46.83073 36.34475,-103.88811 41.17383,-151.47266 2.41454,-23.79227 2.18603,-46.54299 -11.3418,-66.00586 -6.76391,-9.73143 -17.63067,-17.51895 -29.74804,-20.76953 -12.11737,-3.25057 -24.93731,-2.67935 -38.64063,0.33399 a 23.439844,23.439844 0 1 0 10.06641,45.78125 c 8.69374,-1.91174 14.03637,-1.48135 16.42773,-0.83985 2.39136,0.6415 2.38206,0.77732 3.4043,2.24805 2.04448,2.94146 5.10619,15.70951 3.19727,34.51953 -3.81785,37.62004 -22.72121,94.10685 -38.85743,140.9336 -8.068104,23.41337 -15.381607,44.45164 -19.828121,61.48632 -2.223258,8.51735 -3.882899,15.78105 -4.111328,23.90235 -0.114215,4.06065 -0.09029,8.47686 2.152343,14.43554 2.242632,5.95868 9.032419,14.17753 17.660157,16.78711 8.627739,2.60958 15.352219,0.63183 20.064449,-1.25195 4.71224,-1.88378 8.28871,-4.19748 11.96875,-6.87891 7.36009,-5.36285 14.98044,-12.47914 24.50196,-22.30859 15.93029,-16.44549 37.20745,-41.03976 64.84179,-74.76367 0.4443,0.46227 0.83135,0.89343 1.27149,1.35351 -27.27734,61.32526 -17.89832,113.36565 7.89258,145.46289 16.04757,19.97151 37.0354,32.44239 58.86132,35.65821 21.82593,3.21581 48.51886,-6.48865 58.23829,-29.8125 9.71942,-23.32386 3.83567,-50.5221 -13.64649,-83.24414 -11.6505,-21.80671 -29.33915,-46.76083 -54.43359,-75.375 2.50623,-3.90137 5.16559,-7.87354 8.07617,-11.96094 49.96908,-70.17276 163.62606,-163.74459 388.03516,-270.16797 L 727.55078,438.62695 668.84961,421.2168 C 608.50927,403.32018 527.80784,384.16592 460.08594,359.80859 473.46942,331.97336 479.21602,298.84764 478.24219,264.01562 476.75031,210.65415 459.43726,152.28079 425.57227,98.919922 Z m -12.48242,70.267582 c 20.53898,39.68151 31.14321,81.20856 32.17188,118.00195 0.8481,30.33511 -4.90954,56.75832 -15.24219,76.89062 -14.85986,-6.67323 -28.56978,-13.68868 -40.38867,-21.17382 -35.23555,-22.31538 -51.54438,-43.8276 -49.59961,-70.21875 1.7268,-23.43328 21.21203,-58.62458 73.05859,-103.5 z M 253.60156,793.00586 c 16.38611,20.07792 28.06269,37.33109 35.60547,51.44922 14.05464,26.30663 12.73229,40.70216 11.72266,43.125 -1.00964,2.42283 -0.33605,2.61809 -8.13672,1.46875 -7.80067,-1.14935 -20.04605,-7.30915 -29.1543,-18.64453 -12.51814,-15.57906 -21.71951,-40.53706 -10.03711,-77.39844 z"
     id="path4137"
     inkscape:connector-curvature="0" />
  <g
     id="layer1" />
</svg>
